<svg id="Ebene_1" data-name="Ebene 1" xmlns="http://www.w3.org/2000/svg" viewBox="0 0 150 25"><defs><style>.cls-1{fill:#010101;}</style></defs><path d="M13,1.74a5.67,5.67,0,0,1,2,3.82h1c.62,0,.81.17.81.8V24.73c0,.59-.21.8-.8.77L6.69,25,1.78,24.7c-.6,0-.78-.21-.78-.81V7.17c0-.61.16-.78.77-.82L4.1,6.21a7.33,7.33,0,0,1,.25-1.76,5.41,5.41,0,0,1,7-3.65.91.91,0,0,0,.65,0,5.43,5.43,0,0,1,7.18,4.46,4.07,4.07,0,0,0,.07.42l2,.35c.62.1.75.25.75.86,0,5.49,0,11,0,16.48a.78.78,0,0,1-.57.85c-.76.27-1.51.59-2.26.88s-1.09.1-1.09-.72c0-5.61,0-11.21,0-16.81A12.09,12.09,0,0,0,18,5.1a4.36,4.36,0,0,0-4.81-3.47A.22.22,0,0,0,13,1.74ZM11.64,16.45c0,1.73,0,3.46,0,5.18A1.46,1.46,0,0,0,13.5,23.1a1.53,1.53,0,0,0,1.06-1.69c0-3.33,0-6.67,0-10a1.68,1.68,0,0,0-.14-.74,1.44,1.44,0,0,0-1.64-.84,1.46,1.46,0,0,0-1.16,1.44C11.63,13,11.64,14.73,11.64,16.45Zm-1.27,3.1v-2A1.47,1.47,0,0,0,8.93,16,1.45,1.45,0,0,0,7.45,17.5q0,2,0,4.05A1.42,1.42,0,0,0,8.92,23a1.45,1.45,0,0,0,1.45-1.5C10.38,20.86,10.37,20.2,10.37,19.55ZM8.34,6A5.71,5.71,0,0,1,10.4,1.67,4.39,4.39,0,0,0,5.22,6.15Zm5.57-.31a4.48,4.48,0,0,0-2.07-3.42.28.28,0,0,0-.29,0A4.26,4.26,0,0,0,9.49,5.91ZM6.18,21a2.43,2.43,0,0,0-.06-.63,1.43,1.43,0,0,0-1.3-1.11,1.44,1.44,0,0,0-1.56,1.18c-.22,1.14.15,2,1,2.29a1.8,1.8,0,0,0,.39.08C5.57,22.9,6.18,22.21,6.18,21Z" transform="translate(-1 -0.5)"/><path class="cls-1" d="M38.14,12.17a5.13,5.13,0,0,1,2,2,6.17,6.17,0,0,1,.72,3,6.13,6.13,0,0,1-.72,3,5.13,5.13,0,0,1-2,2,5.64,5.64,0,0,1-2.82.72,4.26,4.26,0,0,1-3.49-1.46v1.29H28.75V7.38H32V12.8a4.26,4.26,0,0,1,3.34-1.35A5.64,5.64,0,0,1,38.14,12.17ZM36.8,19.46a3.14,3.14,0,0,0,.79-2.25A3.16,3.16,0,0,0,36.8,15a2.89,2.89,0,0,0-4.07,0,3.17,3.17,0,0,0-.8,2.26,3.14,3.14,0,0,0,.8,2.25,2.89,2.89,0,0,0,4.07,0Z" transform="translate(-1 -0.5)"/><path class="cls-1" d="M47.62,11.87a5.66,5.66,0,0,1,2.26-.42v3l-.73,0a2.92,2.92,0,0,0-2.16.78,3.14,3.14,0,0,0-.79,2.34v5.27H43V11.62h3.08v1.47A3.53,3.53,0,0,1,47.62,11.87Z" transform="translate(-1 -0.5)"/><path class="cls-1" d="M60.15,12.69a4.76,4.76,0,0,1,1.39,3.73v6.37h-3V21.4Q57.62,23,55.13,23a5.19,5.19,0,0,1-2.21-.44,3.31,3.31,0,0,1-1.44-1.2,3.17,3.17,0,0,1-.5-1.75,2.93,2.93,0,0,1,1.17-2.45,6,6,0,0,1,3.6-.89h2.56a2.05,2.05,0,0,0-.64-1.63A2.79,2.79,0,0,0,55.75,14a5.46,5.46,0,0,0-1.74.28,4.69,4.69,0,0,0-1.46.76L51.4,12.8a7,7,0,0,1,2.18-1,9.45,9.45,0,0,1,2.61-.36A5.76,5.76,0,0,1,60.15,12.69Zm-2.74,7.7a2,2,0,0,0,.9-1.13V18.12h-2.2c-1.33,0-2,.44-2,1.31a1.15,1.15,0,0,0,.49,1,2.12,2.12,0,0,0,1.33.37A2.78,2.78,0,0,0,57.41,20.39Z" transform="translate(-1 -0.5)"/><path class="cls-1" d="M74.49,12.7a4.94,4.94,0,0,1,1.27,3.7v6.39H72.54v-5.9a2.91,2.91,0,0,0-.58-2,2.12,2.12,0,0,0-1.67-.65,2.54,2.54,0,0,0-1.94.76,3.14,3.14,0,0,0-.72,2.25v5.52H64.41V11.62h3.07v1.31a4.26,4.26,0,0,1,1.59-1.09,5.48,5.48,0,0,1,2.09-.39A4.55,4.55,0,0,1,74.49,12.7Z" transform="translate(-1 -0.5)"/><path class="cls-1" d="M81,22.22a5.51,5.51,0,0,1-2.21-2,5.64,5.64,0,0,1-.79-3,5.59,5.59,0,0,1,.79-3A5.47,5.47,0,0,1,81,12.19a6.85,6.85,0,0,1,3.19-.74,6.2,6.2,0,0,1,3.07.74,4.4,4.4,0,0,1,1.91,2.11l-2.5,1.35a2.72,2.72,0,0,0-2.5-1.54,2.82,2.82,0,0,0-2.08.83,3.09,3.09,0,0,0-.83,2.27A3.07,3.07,0,0,0,82,19.47a2.82,2.82,0,0,0,2.08.83,2.69,2.69,0,0,0,2.5-1.54l2.5,1.37a4.47,4.47,0,0,1-1.91,2.08,6.1,6.1,0,0,1-3.07.75A6.85,6.85,0,0,1,81,22.22Z" transform="translate(-1 -0.5)"/><path class="cls-1" d="M101,12.7a5,5,0,0,1,1.27,3.7v6.39H99v-5.9a3,3,0,0,0-.57-2,2.15,2.15,0,0,0-1.68-.65,2.54,2.54,0,0,0-1.94.76,3.14,3.14,0,0,0-.72,2.25v5.52H90.9V7.38h3.22v5.4a4.27,4.27,0,0,1,1.55-1,5.49,5.49,0,0,1,2-.35A4.57,4.57,0,0,1,101,12.7Z" transform="translate(-1 -0.5)"/><path class="cls-1" d="M114.59,12.17a5.13,5.13,0,0,1,2,2,6.07,6.07,0,0,1,.73,3,6,6,0,0,1-.73,3,5.13,5.13,0,0,1-2,2,5.61,5.61,0,0,1-2.82.72,4.28,4.28,0,0,1-3.49-1.46v1.29h-3.07V7.38h3.22V12.8a4.27,4.27,0,0,1,3.34-1.35A5.61,5.61,0,0,1,114.59,12.17Zm-1.34,7.29a3.14,3.14,0,0,0,.79-2.25,3.16,3.16,0,0,0-.79-2.26,2.89,2.89,0,0,0-4.07,0,3.16,3.16,0,0,0-.79,2.26,3.14,3.14,0,0,0,.79,2.25,2.89,2.89,0,0,0,4.07,0Z" transform="translate(-1 -0.5)"/><path class="cls-1" d="M121.59,22.22a5.5,5.5,0,0,1-2.18-2,5.73,5.73,0,0,1-.78-3,5.68,5.68,0,0,1,.78-3,5.45,5.45,0,0,1,2.18-2.05,6.66,6.66,0,0,1,3.15-.74,6.59,6.59,0,0,1,3.14.74,5.49,5.49,0,0,1,2.17,2.05,5.68,5.68,0,0,1,.78,3,5.73,5.73,0,0,1-.78,3,5.54,5.54,0,0,1-2.17,2,6.59,6.59,0,0,1-3.14.74A6.66,6.66,0,0,1,121.59,22.22Zm5.18-2.76a3.14,3.14,0,0,0,.8-2.25,3.17,3.17,0,0,0-.8-2.26,2.89,2.89,0,0,0-4.07,0,3.13,3.13,0,0,0-.81,2.26,3.1,3.1,0,0,0,.81,2.25,2.89,2.89,0,0,0,4.07,0Z" transform="translate(-1 -0.5)"/><path class="cls-1" d="M142.36,12.17a5.13,5.13,0,0,1,2,2,6.07,6.07,0,0,1,.73,3,6,6,0,0,1-.73,3,5.13,5.13,0,0,1-2,2,5.58,5.58,0,0,1-2.82.72,4.28,4.28,0,0,1-3.49-1.46v1.29H133V7.38h3.22V12.8a4.27,4.27,0,0,1,3.34-1.35A5.58,5.58,0,0,1,142.36,12.17ZM141,19.46a3.14,3.14,0,0,0,.8-2.25A3.17,3.17,0,0,0,141,15,2.89,2.89,0,0,0,137,15a3.16,3.16,0,0,0-.79,2.26,3.14,3.14,0,0,0,.79,2.25,2.89,2.89,0,0,0,4.07,0Z" transform="translate(-1 -0.5)"/><path class="cls-1" d="M148.93,7.79l-.76-1.1h-1.11V7.79h-.51V4.21h1.39a1.65,1.65,0,0,1,1.09.33,1.13,1.13,0,0,1,.4.92,1.19,1.19,0,0,1-.21.71,1.11,1.11,0,0,1-.58.42l.85,1.2Zm-.27-1.73a.74.74,0,0,0,.26-.6.74.74,0,0,0-.26-.6,1.16,1.16,0,0,0-.73-.2h-.87V6.27h.87A1.1,1.1,0,0,0,148.66,6.06Z" transform="translate(-1 -0.5)"/><path class="cls-1" d="M147.85,9.19A3.17,3.17,0,1,1,151,6,3.17,3.17,0,0,1,147.85,9.19Zm0-5.95A2.78,2.78,0,1,0,150.62,6,2.77,2.77,0,0,0,147.85,3.24Z" transform="translate(-1 -0.5)"/></svg>